<svg xmlns="http://www.w3.org/2000/svg" viewBox="0 0 64 64" role="img" aria-label="Isometric 3D house">
  <defs>
    <linearGradient id="bg" x1="8" y1="4" x2="56" y2="60" gradientUnits="userSpaceOnUse">
      <stop stop-color="#142A30"/>
      <stop offset="1" stop-color="#061014"/>
    </linearGradient>
    <linearGradient id="left" x1="10" y1="26" x2="34" y2="55" gradientUnits="userSpaceOnUse">
      <stop stop-color="#B9C9C8"/>
      <stop offset="1" stop-color="#879B9C"/>
    </linearGradient>
    <linearGradient id="right" x1="34" y1="36" x2="55" y2="51" gradientUnits="userSpaceOnUse">
      <stop stop-color="#8CA5A7"/>
      <stop offset="1" stop-color="#647C80"/>
    </linearGradient>
  </defs>

  <rect width="64" height="64" rx="14" fill="url(#bg)"/>
  <path d="M7 46.5 30.5 60 58 44.2 34.5 31Z" fill="#02090C" opacity=".55"/>

  <path d="m10 24.5 23.5 13.6v18L10 42.5Z" fill="url(#left)"/>
  <path d="m33.5 38.1 21-12.1v18L33.5 56.1Z" fill="url(#right)"/>
  <path d="M10 24.5 31 12.4 54.5 26 33.5 38.1Z" fill="#D9E6E3"/>
  <path d="M10 24.5 31 12.4 54.5 26 33.5 38.1 10 24.5Z" fill="none" stroke="#A5F3FC" stroke-width="1.5" stroke-linejoin="round"/>

  <path d="m18 35.2 6.5 3.7v7.5L18 42.7Z" fill="#15333A"/>
  <path d="m27 40.4 3.8 2.2v11.4L27 51.8Z" fill="#203E43"/>
  <path d="m39 41.1 6.5-3.8v6.7L39 47.8Z" fill="#A5F3FC" opacity=".7"/>
  <path d="m47.5 36.2 4-2.3v6.7l-4 2.3Z" fill="#A5F3FC" opacity=".7"/>

  <path d="m37.5 17.1 6 3.5v5.1l-6-3.5Z" fill="#82989A"/>
  <path d="m37.5 17.1 3.8-2.2 6 3.5-3.8 2.2Z" fill="#F0F8F5"/>
  <path d="m43.5 20.6 3.8-2.2v5.1l-3.8 2.2Z" fill="#60797C"/>
</svg>
